ffmpeg started on 2025-07-06 at 17:40:56
Report written to "D:\Convert\FFMetrics\reports\ssim_report-6.txt"
Log level: 32
Command line:
ffmpeg -hide_banner -nostdin -i "G:\\\xc0\xed\xe8\xec\xe5\\\xce\xed\xe3\xee\xe8\xed\xe3\xe8\\!_37_\xc7\xe8\xec\xe0_2025\\JamClub\\\xc3\xee\xeb\xf3\xe1\xe0\xff \xf8\xea\xe0\xf2\xf3\xeb\xea\xe0\\JamClub_Ao_no_Hako_07_1080p_HEVC.mkv" -i "G:\\\xc0\xed\xe8\xec\xe5\\\xce\xed\xe3\xee\xe8\xed\xe3\xe8\\!_37_\xc7\xe8\xec\xe0_2025\\JamClub\\\xc3\xee\xeb\xf3\xe1\xe0\xff \xf8\xea\xe0\xf2\xf3\xeb\xea\xe0\\JamClub_Ao_no_Hako_07_1080p.mp4" -lavfi "[0:v]settb=AVTB,setpts=PTS-STARTPTS,format=pix_fmts=yuv420p10,fps=24000/1001,scale=1920:1080:flags=bicubic[main];[1:v]settb=AVTB,setpts=PTS-STARTPTS,format=pix_fmts=yuv420p,fps=24000/1001,scale=1920:1080:flags=bicubic[ref];[main][ref]ssim=eof_action=endall:stats_file='D\\:/Convert/FFMetrics/logs/ssim_logfile-6.txt'" -f null -
Input #0, matroska,webm, from 'G:\Аниме\Онгоинги\!_37_Зима_2025\JamClub\Голубая шкатулка\JamClub_Ao_no_Hako_07_1080p_HEVC.mkv':
  Metadata:
    COMPATIBLE_BRANDS: isomiso2avc1mp41
    MAJOR_BRAND     : isom
    MINOR_VERSION   : 512
    ENCODER         : Lavf61.7.100
  Duration: 00:23:59.25, start: -0.001000, bitrate: 1113 kb/s
  Stream #0:0: Video: hevc (Main 10), yuv420p10le(tv, bt709, progressive), 1920x1080 [SAR 1:1 DAR 16:9], 23.98 fps, 23.98 tbr, 1k tbn (default)
      Metadata:
        HANDLER_NAME    : VideoHandler
        VENDOR_ID       : [0][0][0][0]
        ENCODER         : Lavc61.19.100 libx265
        BPS             : 916370
        DURATION        : 00:23:59.187708333
        NUMBER_OF_FRAMES: 34506
        NUMBER_OF_BYTES : 164853474
        _STATISTICS_WRITING_APP: mkvpropedit v66.0.0 ('Josie') 64-bit
        _STATISTICS_WRITING_DATE_UTC: 2025-07-03 15:54:59
        _STATISTICS_TAGS: BPS DURATION NUMBER_OF_FRAMES NUMBER_OF_BYTES
  Stream #0:1(eng): Audio: aac (LC), 48000 Hz, stereo, fltp (default)
      Metadata:
        HANDLER_NAME    : SoundHandler
        VENDOR_ID       : [0][0][0][0]
        ENCODER         : Lavc61.19.100 aac
        BPS             : 193527
        DURATION        : 00:23:59.213000000
        NUMBER_OF_FRAMES: 67464
        NUMBER_OF_BYTES : 34815835
        _STATISTICS_WRITING_APP: mkvpropedit v66.0.0 ('Josie') 64-bit
        _STATISTICS_WRITING_DATE_UTC: 2025-07-03 15:54:59
        _STATISTICS_TAGS: BPS DURATION NUMBER_OF_FRAMES NUMBER_OF_BYTES
Input #1, mov,mp4,m4a,3gp,3g2,mj2, from 'G:\Аниме\Онгоинги\!_37_Зима_2025\JamClub\Голубая шкатулка\JamClub_Ao_no_Hako_07_1080p.mp4':
  Metadata:
    major_brand     : isom
    minor_version   : 512
    compatible_brands: isomiso2avc1mp41
    encoder         : Lavf60.16.100
  Duration: 00:23:59.23, start: 0.000000, bitrate: 4302 kb/s
  Stream #1:0[0x1](und): Video: h264 (High) (avc1 / 0x31637661), yuv420p(progressive), 1920x1080 [SAR 1:1 DAR 16:9], 4104 kb/s, 23.98 fps, 23.98 tbr, 90k tbn (default)
      Metadata:
        handler_name    : VideoHandler
        vendor_id       : [0][0][0][0]
  Stream #1:1[0x2](eng): Audio: aac (LC) (mp4a / 0x6134706D), 48000 Hz, stereo, fltp, 191 kb/s (default)
      Metadata:
        handler_name    : SoundHandler
        vendor_id       : [0][0][0][0]
Stream mapping:
  Stream #0:0 (hevc) -> settb:default
  Stream #1:0 (h264) -> settb:default
  ssim:default -> Stream #0:0 (wrapped_avframe)
  Stream #0:1 -> #0:1 (aac (native) -> pcm_s16le (native))
Output #0, null, to 'pipe:':
  Metadata:
    COMPATIBLE_BRANDS: isomiso2avc1mp41
    MAJOR_BRAND     : isom
    MINOR_VERSION   : 512
    encoder         : Lavf61.7.100
  Stream #0:0: Video: wrapped_avframe, yuv420p10le(tv, bt709, progressive), 1920x1080 [SAR 1:1 DAR 16:9], q=2-31, 200 kb/s, 23.98 fps, 23.98 tbn
      Metadata:
        encoder         : Lavc61.19.100 wrapped_avframe
  Stream #0:1(eng): Audio: pcm_s16le, 48000 Hz, stereo, s16, 1536 kb/s (default)
      Metadata:
        HANDLER_NAME    : SoundHandler
        VENDOR_ID       : [0][0][0][0]
        _STATISTICS_TAGS: BPS DURATION NUMBER_OF_FRAMES NUMBER_OF_BYTES
        BPS             : 193527
        DURATION        : 00:23:59.213000000
        NUMBER_OF_FRAMES: 67464
        NUMBER_OF_BYTES : 34815835
        _STATISTICS_WRITING_APP: mkvpropedit v66.0.0 ('Josie') 64-bit
        _STATISTICS_WRITING_DATE_UTC: 2025-07-03 15:54:59
        encoder         : Lavc61.19.100 pcm_s16le
frame=  107 fps=0.0 q=-0.0 size=N/A time=00:00:04.46 bitrate=N/A speed=8.67x    frame=  267 fps=260 q=-0.0 size=N/A time=00:00:11.13 bitrate=N/A speed=10.9x    frame=  456 fps=297 q=-0.0 size=N/A time=00:00:19.01 bitrate=N/A speed=12.4x    frame=  711 fps=344 q=-0.0 size=N/A time=00:00:29.65 bitrate=N/A speed=14.4x    frame=  949 fps=368 q=-0.0 size=N/A time=00:00:39.58 bitrate=N/A speed=15.4x    frame= 1198 fps=388 q=-0.0 size=N/A time=00:00:49.96 bitrate=N/A speed=16.2x    frame= 1416 fps=393 q=-0.0 size=N/A time=00:00:59.05 bitrate=N/A speed=16.4x    frame= 1630 fps=395 q=-0.0 size=N/A time=00:01:07.98 bitrate=N/A speed=16.5x    frame= 1841 fps=397 q=-0.0 size=N/A time=00:01:16.78 bitrate=N/A speed=16.6x    frame= 2052 fps=399 q=-0.0 size=N/A time=00:01:25.58 bitrate=N/A speed=16.6x    frame= 2251 fps=398 q=-0.0 size=N/A time=00:01:33.88 bitrate=N/A speed=16.6x    frame= 2456 fps=397 q=-0.0 size=N/A time=00:01:42.43 bitrate=N/A speed=16.6x    frame= 2661 fps=397 q=-0.0 size=N/A time=00:01:50.98 bitrate=N/A speed=16.6x    frame= 2869 fps=398 q=-0.0 size=N/A time=00:01:59.66 bitrate=N/A speed=16.6x    frame= 3078 fps=399 q=-0.0 size=N/A time=00:02:08.37 bitrate=N/A speed=16.6x    frame= 3314 fps=402 q=-0.0 size=N/A time=00:02:18.22 bitrate=N/A speed=16.8x    frame= 3551 fps=405 q=-0.0 size=N/A time=00:02:28.10 bitrate=N/A speed=16.9x    frame= 3787 fps=408 q=-0.0 size=N/A time=00:02:37.94 bitrate=N/A speed=  17x    frame= 4030 fps=412 q=-0.0 size=N/A time=00:02:48.08 bitrate=N/A speed=17.2x    frame= 4302 fps=417 q=-0.0 size=N/A time=00:02:59.42 bitrate=N/A speed=17.4x    frame= 4501 fps=416 q=-0.0 size=N/A time=00:03:07.72 bitrate=N/A speed=17.3x    frame= 4757 fps=420 q=-0.0 size=N/A time=00:03:18.40 bitrate=N/A speed=17.5x    frame= 5030 fps=424 q=-0.0 size=N/A time=00:03:29.79 bitrate=N/A speed=17.7x    frame= 5291 fps=428 q=-0.0 size=N/A time=00:03:40.67 bitrate=N/A speed=17.8x    frame= 5558 fps=431 q=-0.0 size=N/A time=00:03:51.81 bitrate=N/A speed=  18x    frame= 5835 fps=436 q=-0.0 size=N/A time=00:04:03.36 bitrate=N/A speed=18.2x    frame= 6088 fps=437 q=-0.0 size=N/A time=00:04:13.92 bitrate=N/A speed=18.2x    frame= 6342 fps=439 q=-0.0 size=N/A time=00:04:24.51 bitrate=N/A speed=18.3x    frame= 6597 fps=441 q=-0.0 size=N/A time=00:04:35.14 bitrate=N/A speed=18.4x    frame= 6850 fps=443 q=-0.0 size=N/A time=00:04:45.70 bitrate=N/A speed=18.5x    frame= 7087 fps=443 q=-0.0 size=N/A time=00:04:55.58 bitrate=N/A speed=18.5x    frame= 7341 fps=445 q=-0.0 size=N/A time=00:05:06.18 bitrate=N/A speed=18.6x    frame= 7594 fps=447 q=-0.0 size=N/A time=00:05:16.73 bitrate=N/A speed=18.6x    frame= 7874 fps=449 q=-0.0 size=N/A time=00:05:28.41 bitrate=N/A speed=18.7x    frame= 8134 fps=451 q=-0.0 size=N/A time=00:05:39.25 bitrate=N/A speed=18.8x    frame= 8380 fps=452 q=-0.0 size=N/A time=00:05:49.51 bitrate=N/A speed=18.8x    frame= 8631 fps=453 q=-0.0 size=N/A time=00:05:59.98 bitrate=N/A speed=18.9x    frame= 8868 fps=453 q=-0.0 size=N/A time=00:06:09.86 bitrate=N/A speed=18.9x    frame= 9093 fps=452 q=-0.0 size=N/A time=00:06:19.25 bitrate=N/A speed=18.9x    frame= 9324 fps=452 q=-0.0 size=N/A time=00:06:28.88 bitrate=N/A speed=18.9x    frame= 9568 fps=453 q=-0.0 size=N/A time=00:06:39.06 bitrate=N/A speed=18.9x    frame= 9801 fps=453 q=-0.0 size=N/A time=00:06:48.78 bitrate=N/A speed=18.9x    frame=10057 fps=454 q=-0.0 size=N/A time=00:06:59.46 bitrate=N/A speed=18.9x    frame=10307 fps=454 q=-0.0 size=N/A time=00:07:09.88 bitrate=N/A speed=  19x    frame=10574 fps=456 q=-0.0 size=N/A time=00:07:21.02 bitrate=N/A speed=  19x    frame=10842 fps=457 q=-0.0 size=N/A time=00:07:32.20 bitrate=N/A speed=19.1x    frame=11089 fps=458 q=-0.0 size=N/A time=00:07:42.50 bitrate=N/A speed=19.1x    frame=11334 fps=458 q=-0.0 size=N/A time=00:07:52.72 bitrate=N/A speed=19.1x    frame=11594 fps=459 q=-0.0 size=N/A time=00:08:03.56 bitrate=N/A speed=19.1x    frame=11850 fps=460 q=-0.0 size=N/A time=00:08:14.24 bitrate=N/A speed=19.2x    frame=12110 fps=461 q=-0.0 size=N/A time=00:08:25.08 bitrate=N/A speed=19.2x    frame=12311 fps=459 q=-0.0 size=N/A time=00:08:33.47 bitrate=N/A speed=19.2x    frame=12520 fps=458 q=-0.0 size=N/A time=00:08:42.18 bitrate=N/A speed=19.1x    frame=12709 fps=456 q=-0.0 size=N/A time=00:08:50.07 bitrate=N/A speed=  19x    frame=12914 fps=455 q=-0.0 size=N/A time=00:08:58.62 bitrate=N/A speed=  19x    frame=13158 fps=456 q=-0.0 size=N/A time=00:09:08.79 bitrate=N/A speed=  19x    frame=13426 fps=457 q=-0.0 size=N/A time=00:09:19.97 bitrate=N/A speed=19.1x    frame=13698 fps=458 q=-0.0 size=N/A time=00:09:31.32 bitrate=N/A speed=19.1x    frame=13934 fps=458 q=-0.0 size=N/A time=00:09:41.16 bitrate=N/A speed=19.1x    frame=14194 fps=459 q=-0.0 size=N/A time=00:09:52.00 bitrate=N/A speed=19.1x    frame=14457 fps=460 q=-0.0 size=N/A time=00:10:02.97 bitrate=N/A speed=19.2x    frame=14707 fps=460 q=-0.0 size=N/A time=00:10:13.40 bitrate=N/A speed=19.2x    frame=14939 fps=460 q=-0.0 size=N/A time=00:10:23.08 bitrate=N/A speed=19.2x    frame=15167 fps=460 q=-0.0 size=N/A time=00:10:32.59 bitrate=N/A speed=19.2x    frame=15443 fps=461 q=-0.0 size=N/A time=00:10:44.10 bitrate=N/A speed=19.2x    frame=15708 fps=462 q=-0.0 size=N/A time=00:10:55.15 bitrate=N/A speed=19.3x    frame=15972 fps=462 q=-0.0 size=N/A time=00:11:06.16 bitrate=N/A speed=19.3x    frame=16223 fps=463 q=-0.0 size=N/A time=00:11:16.63 bitrate=N/A speed=19.3x    frame=16482 fps=463 q=-0.0 size=N/A time=00:11:27.43 bitrate=N/A speed=19.3x    frame=16734 fps=464 q=-0.0 size=N/A time=00:11:37.94 bitrate=N/A speed=19.3x    frame=16994 fps=464 q=-0.0 size=N/A time=00:11:48.79 bitrate=N/A speed=19.4x    frame=17263 fps=465 q=-0.0 size=N/A time=00:12:00.01 bitrate=N/A speed=19.4x    frame=17522 fps=466 q=-0.0 size=N/A time=00:12:10.81 bitrate=N/A speed=19.4x    frame=17794 fps=466 q=-0.0 size=N/A time=00:12:22.15 bitrate=N/A speed=19.5x    frame=18055 fps=467 q=-0.0 size=N/A time=00:12:33.04 bitrate=N/A speed=19.5x    frame=18325 fps=468 q=-0.0 size=N/A time=00:12:44.30 bitrate=N/A speed=19.5x    frame=18585 fps=468 q=-0.0 size=N/A time=00:12:55.14 bitrate=N/A speed=19.5x    frame=18859 fps=469 q=-0.0 size=N/A time=00:13:06.57 bitrate=N/A speed=19.6x    frame=19124 fps=470 q=-0.0 size=N/A time=00:13:17.63 bitrate=N/A speed=19.6x    frame=19396 fps=470 q=-0.0 size=N/A time=00:13:29.01 bitrate=N/A speed=19.6x    frame=19647 fps=470 q=-0.0 size=N/A time=00:13:39.44 bitrate=N/A speed=19.6x    frame=19914 fps=471 q=-0.0 size=N/A time=00:13:50.57 bitrate=N/A speed=19.6x    frame=20187 fps=472 q=-0.0 size=N/A time=00:14:01.96 bitrate=N/A speed=19.7x    frame=20444 fps=472 q=-0.0 size=N/A time=00:14:12.68 bitrate=N/A speed=19.7x    frame=20710 fps=473 q=-0.0 size=N/A time=00:14:23.77 bitrate=N/A speed=19.7x    frame=20956 fps=473 q=-0.0 size=N/A time=00:14:34.03 bitrate=N/A speed=19.7x    frame=21225 fps=473 q=-0.0 size=N/A time=00:14:45.25 bitrate=N/A speed=19.7x    frame=21453 fps=473 q=-0.0 size=N/A time=00:14:54.76 bitrate=N/A speed=19.7x    frame=21696 fps=473 q=-0.0 size=N/A time=00:15:04.90 bitrate=N/A speed=19.7x    frame=21954 fps=473 q=-0.0 size=N/A time=00:15:15.66 bitrate=N/A speed=19.7x    frame=22172 fps=473 q=-0.0 size=N/A time=00:15:24.75 bitrate=N/A speed=19.7x    frame=22420 fps=473 q=-0.0 size=N/A time=00:15:35.10 bitrate=N/A speed=19.7x    frame=22619 fps=472 q=-0.0 size=N/A time=00:15:43.40 bitrate=N/A speed=19.7x    frame=22825 fps=471 q=-0.0 size=N/A time=00:15:51.99 bitrate=N/A speed=19.6x    frame=23096 fps=472 q=-0.0 size=N/A time=00:16:03.29 bitrate=N/A speed=19.7x    frame=23336 fps=471 q=-0.0 size=N/A time=00:16:13.30 bitrate=N/A speed=19.7x    frame=23598 fps=472 q=-0.0 size=N/A time=00:16:24.23 bitrate=N/A speed=19.7x    frame=23835 fps=472 q=-0.0 size=N/A time=00:16:34.11 bitrate=N/A speed=19.7x    frame=24076 fps=472 q=-0.0 size=N/A time=00:16:44.16 bitrate=N/A speed=19.7x    frame=24286 fps=471 q=-0.0 size=N/A time=00:16:52.92 bitrate=N/A speed=19.6x    frame=24551 fps=472 q=-0.0 size=N/A time=00:17:03.98 bitrate=N/A speed=19.7x    frame=24816 fps=472 q=-0.0 size=N/A time=00:17:15.03 bitrate=N/A speed=19.7x    frame=25081 fps=472 q=-0.0 size=N/A time=00:17:26.08 bitrate=N/A speed=19.7x    frame=25337 fps=473 q=-0.0 size=N/A time=00:17:36.76 bitrate=N/A speed=19.7x    frame=25584 fps=473 q=-0.0 size=N/A time=00:17:47.06 bitrate=N/A speed=19.7x    frame=25836 fps=473 q=-0.0 size=N/A time=00:17:57.57 bitrate=N/A speed=19.7x    frame=26079 fps=473 q=-0.0 size=N/A time=00:18:07.71 bitrate=N/A speed=19.7x    frame=26313 fps=473 q=-0.0 size=N/A time=00:18:17.47 bitrate=N/A speed=19.7x    frame=26547 fps=472 q=-0.0 size=N/A time=00:18:27.23 bitrate=N/A speed=19.7x    frame=26796 fps=472 q=-0.0 size=N/A time=00:18:37.61 bitrate=N/A speed=19.7x    frame=27047 fps=473 q=-0.0 size=N/A time=00:18:48.08 bitrate=N/A speed=19.7x    frame=27281 fps=472 q=-0.0 size=N/A time=00:18:57.84 bitrate=N/A speed=19.7x    frame=27540 fps=473 q=-0.0 size=N/A time=00:19:08.64 bitrate=N/A speed=19.7x    frame=27796 fps=473 q=-0.0 size=N/A time=00:19:19.32 bitrate=N/A speed=19.7x    frame=28051 fps=473 q=-0.0 size=N/A time=00:19:29.96 bitrate=N/A speed=19.7x    frame=28320 fps=474 q=-0.0 size=N/A time=00:19:41.18 bitrate=N/A speed=19.8x    frame=28555 fps=473 q=-0.0 size=N/A time=00:19:50.98 bitrate=N/A speed=19.7x    frame=28794 fps=473 q=-0.0 size=N/A time=00:20:00.94 bitrate=N/A speed=19.7x    frame=29040 fps=473 q=-0.0 size=N/A time=00:20:11.21 bitrate=N/A speed=19.7x    frame=29297 fps=474 q=-0.0 size=N/A time=00:20:21.92 bitrate=N/A speed=19.8x    frame=29554 fps=474 q=-0.0 size=N/A time=00:20:32.64 bitrate=N/A speed=19.8x    frame=29781 fps=473 q=-0.0 size=N/A time=00:20:42.11 bitrate=N/A speed=19.7x    frame=30015 fps=473 q=-0.0 size=N/A time=00:20:51.87 bitrate=N/A speed=19.7x    frame=30243 fps=473 q=-0.0 size=N/A time=00:21:01.38 bitrate=N/A speed=19.7x    frame=30512 fps=473 q=-0.0 size=N/A time=00:21:12.60 bitrate=N/A speed=19.7x    frame=30777 fps=474 q=-0.0 size=N/A time=00:21:23.65 bitrate=N/A speed=19.8x    frame=31041 fps=474 q=-0.0 size=N/A time=00:21:34.66 bitrate=N/A speed=19.8x    frame=31314 fps=474 q=-0.0 size=N/A time=00:21:46.05 bitrate=N/A speed=19.8x    frame=31563 fps=475 q=-0.0 size=N/A time=00:21:56.44 bitrate=N/A speed=19.8x    frame=31822 fps=475 q=-0.0 size=N/A time=00:22:07.24 bitrate=N/A speed=19.8x    frame=32081 fps=475 q=-0.0 size=N/A time=00:22:18.04 bitrate=N/A speed=19.8x    frame=32347 fps=475 q=-0.0 size=N/A time=00:22:29.13 bitrate=N/A speed=19.8x    frame=32583 fps=475 q=-0.0 size=N/A time=00:22:38.98 bitrate=N/A speed=19.8x    frame=32775 fps=474 q=-0.0 size=N/A time=00:22:46.99 bitrate=N/A speed=19.8x    frame=32988 fps=474 q=-0.0 size=N/A time=00:22:55.87 bitrate=N/A speed=19.8x    frame=33193 fps=473 q=-0.0 size=N/A time=00:23:04.42 bitrate=N/A speed=19.7x    frame=33428 fps=473 q=-0.0 size=N/A time=00:23:14.22 bitrate=N/A speed=19.7x    frame=33656 fps=473 q=-0.0 size=N/A time=00:23:23.73 bitrate=N/A speed=19.7x    frame=33865 fps=473 q=-0.0 size=N/A time=00:23:32.45 bitrate=N/A speed=19.7x    frame=34094 fps=472 q=-0.0 size=N/A time=00:23:42.00 bitrate=N/A speed=19.7x    frame=34320 fps=472 q=-0.0 size=N/A time=00:23:51.43 bitrate=N/A speed=19.7x    [Parsed_ssim_10 @ 00000156d60e5900] SSIM Y:0.993857 (22.116338) U:0.993774 (22.057969) V:0.993515 (21.881005) All:0.993786 (22.066527)
[out#0/null @ 00000156cf5fc040] video:14827KiB audio:269856KiB subtitle:0KiB other streams:0KiB global headers:0KiB muxing overhead: unknown
frame=34506 fps=472 q=-0.0 Lsize=N/A time=00:23:59.18 bitrate=N/A speed=19.7x    
